# xmcd
#
# Track frame offsets:
#	150
#	23177
#	48069
#	68594
#	81832
#	99194
#	119332
#	142177
#	158552
#	184963
#	205689
#	221574
#	236616
#
# Disc length: 3392 seconds
#
# Revision: 0
# Processed by: cddbd v1.4PL0 Copyright (c) Steve Scherf et al.
# Submitted via: audiograbber 1.81.02
#
DISCID=aa0d3e0d
DTITLE=Peter Green - Promised Land
DYEAR=2001
DGENRE=Blues
TTITLE0=Slabo Day
TTITLE1=Last Train To San Antone
TTITLE2=Tribal Dance
TTITLE3=Bandit
TTITLE4=In The Skies
TTITLE5=Loser Two Times
TTITLE6=Cryin' Won't Bring You Back
TTITLE7=Proud Pinto
TTITLE8=The Clown
TTITLE9=Just For You
TTITLE10=Promised Land
TTITLE11=Momma Don'tcha Cry
TTITLE12=Black Woman
EXTD=
EXTT0=
EXTT1=
EXTT2=
EXTT3=
EXTT4=
EXTT5=
EXTT6=
EXTT7=
EXTT8=
EXTT9=
EXTT10=
EXTT11=
EXTT12=
PLAYORDER=
